<?xml version="1.0" standalone="no"?>
<!DOCTYPE svg PUBLIC "-//W3C//DTD SVG 20010904//EN"
 "http://www.w3.org/TR/2001/REC-SVG-20010904/DTD/svg10.dtd">
<svg version="1.0" xmlns="http://www.w3.org/2000/svg"
 width="900.000000pt" height="900.000000pt" viewBox="0 0 900.000000 900.000000"
 preserveAspectRatio="xMidYMid meet">
<metadata>
Created by potrace 1.14, written by Peter Selinger 2001-2017
</metadata>
<g transform="translate(0.000000,900.000000) scale(0.100000,-0.100000)"
fill="#000000" stroke="none">
<path d="M1910 5975 l0 -865 865 0 865 0 -3 -432 -2 -433 -437 -3 -438 -2 0
-1300 0 -1300 441 0 441 0 -2 428 c-1 235 -2 433 -1 440 2 18 1706 18 1718 -1
4 -6 6 -204 4 -440 l-3 -427 438 2 439 3 3 1298 2 1297 -439 0 -440 0 -1 435
-1 435 866 0 865 0 -2 863 -3 862 -862 3 -863 2 0 -865 0 -865 -860 0 -860 0
0 865 0 865 -865 0 -865 0 0 -865z"/>
</g>
</svg>
